<?xml version="1.0" standalone="no"?>
<!DOCTYPE svg PUBLIC "-//W3C//DTD SVG 20010904//EN"
 "http://www.w3.org/TR/2001/REC-SVG-20010904/DTD/svg10.dtd">
<svg version="1.0" xmlns="http://www.w3.org/2000/svg"
 width="200.000000pt" height="200.000000pt" viewBox="0 0 200.000000 200.000000"
 preserveAspectRatio="xMidYMid meet">

<g transform="translate(0.000000,200.000000) scale(0.100000,-0.100000)"
fill="#000000" stroke="none">
<path d="M292 1707 l-292 -292 0 -415 0 -415 295 -295 c162 -162 295 -293 296
-290 0 3 22 99 49 215 l48 210 -154 155 -154 155 0 265 0 265 178 178 c97 97
181 177 185 177 4 0 7 -90 7 -200 l0 -200 250 0 250 0 0 200 c0 110 3 200 7
200 4 0 88 -80 185 -177 l178 -178 0 -265 0 -265 -154 -155 -155 -155 45 -200
c24 -110 47 -207 50 -214 3 -10 103 83 299 279 l295 295 0 415 0 415 -293 293
-292 292 -415 0 -415 0 -293 -293z"/>
</g>
</svg>
